<svg id="Capa_1" data-name="Capa 1" xmlns="http://www.w3.org/2000/svg" viewBox="0 0 572.72 571.34"><defs><style>.cls-1{font-size:134.76px;fill:#eae6df;font-family:ArialMT, Arial;}.cls-2{letter-spacing:-0.02em;}.cls-3{fill:none;stroke:#eae6df;stroke-miterlimit:10;stroke-width:7px;}</style></defs><title>logo-claro</title><text class="cls-1" transform="translate(100.41 380.34)">HØS<tspan class="cls-2" x="292.02" y="0">T</tspan></text><path class="cls-3" d="M104.23,349.81c-12.29-18.49-24.66-47-32.83-73.13-18.64-59.67,0,29.83,29.83,0s18.65-55.94-3.72-93.23,44.74,29.83,82,18.65,55.94-78.31,46.62-110,55.93,70.85,69,69,72.72-29.84,87.64-55.94,7.45,106.28,29.83,98.82,65.26,1.87,85.76-9.32-19.81,103,11.19,102.55c.84,0-.31,5.16,13.05,5.59,6.77.22-4.56,28.3-17.1,47" transform="translate(-15.31 -82.51)"/><path class="cls-3" d="M294.15,562" transform="translate(-15.31 -82.51)"/><path class="cls-3" d="M294.15,194.64" transform="translate(-15.31 -82.51)"/><path class="cls-3" d="M162.76,263.63s119.33,193.9,277.82,0" transform="translate(-15.31 -82.51)"/><path class="cls-3" d="M235.48,174.13s50.34,218.15,123.06,0" transform="translate(-15.31 -82.51)"/><polyline class="cls-3" points="9.56 267.3 81.42 267.3 84.2 267.3 482.73 267.3 551.59 267.3"/><line class="cls-3" x1="271.69" y1="108.33" x2="271.69" y2="263.49"/></svg>