<?xml version="1.0" encoding="utf-8"?>
<!-- Generator: Adobe Illustrator 22.1.0, SVG Export Plug-In . SVG Version: 6.00 Build 0)  -->
<svg version="1.1" id="Capa_1" xmlns="http://www.w3.org/2000/svg" xmlns:xlink="http://www.w3.org/1999/xlink" x="0px" y="0px"
	 viewBox="0 0 542 270.8" style="enable-background:new 0 0 542 270.8;" xml:space="preserve">
<style type="text/css">
	.st0{fill:none;stroke:#2D2D2B;stroke-width:4;stroke-miterlimit:10;}
	.st1{fill:none;stroke:#2D2D2B;stroke-width:7;stroke-miterlimit:10;}
</style>
<title>logo-sin-nombre</title>
<path class="st0" d="M79.4,267.3c-12.3-18.5-24.7-47-32.8-73.1c-18.6-59.7,0,29.8,29.8,0s18.6-55.9-3.7-93.2s44.7,29.8,82,18.6
	s55.9-78.3,46.6-110s55.9,70.9,69,69s72.7-29.8,87.6-55.9s7.5,106.3,29.9,98.8s65.3,1.9,85.8-9.3c20.5-11.2-19.8,103,11.2,102.5
	c0.8,0-0.3,5.2,13.1,5.6c6.8,0.2-4.6,28.3-17.1,47"/>
<path class="st1" d="M269.3,479.5"/>
<path class="st1" d="M269.3,112.1"/>
<path class="st0" d="M137.9,181.1c0,0,119.3,193.9,277.8,0"/>
<path class="st0" d="M210.6,91.6c0,0,50.3,218.1,123.1,0"/>
<polyline class="st0" points="0,267.3 71.8,267.3 74.6,267.3 473.2,267.3 542,267.3 "/>
<line class="st0" x1="262.1" y1="108.3" x2="262.1" y2="263.5"/>
</svg>
