<svg id="Capa_1" data-name="Capa 1" xmlns="http://www.w3.org/2000/svg" viewBox="0 0 542.03 267.79"><defs><style>.cls-1,.cls-2{fill:none;stroke:#2d2d2b;stroke-miterlimit:10;}.cls-1{stroke-width:4px;}.cls-2{stroke-width:7px;}</style></defs><title>logo-sin-nombre-fino</title><path class="cls-1" d="M79.36,267.3c-12.29-18.49-24.66-47-32.83-73.13-18.64-59.67,0,29.83,29.83,0S95,138.23,72.63,100.94s44.74,29.83,82,18.65,55.94-78.31,46.62-110,55.93,70.85,69,69S343,48.75,357.88,22.65s7.48,106.26,29.86,98.84,65.25,1.87,85.76-9.32-19.81,103,11.19,102.55c.84,0-.31,5.16,13.05,5.59,6.77.22-4.56,28.3-17.1,47" transform="translate(0 -1.51)"/><path class="cls-2" d="M269.28,479.49" transform="translate(0 -1.51)"/><path class="cls-2" d="M269.28,112.13" transform="translate(0 -1.51)"/><path class="cls-1" d="M137.89,181.12s119.33,193.9,277.81,0" transform="translate(0 -1.51)"/><path class="cls-1" d="M210.61,91.62s50.34,218.15,123.06,0" transform="translate(0 -1.51)"/><polyline class="cls-1" points="0 265.79 71.85 265.79 74.63 265.79 473.17 265.79 542.03 265.79"/><line class="cls-1" x1="262.13" y1="106.82" x2="262.13" y2="261.98"/></svg>